<?xml version="1.0" encoding="utf-8"?>
<!-- Generator: Adobe Illustrator 22.0.1, SVG Export Plug-In . SVG Version: 6.00 Build 0)  -->
<svg version="1.1" id="Слой_1" xmlns="http://www.w3.org/2000/svg" xmlns:xlink="http://www.w3.org/1999/xlink" x="0px" y="0px"
	 viewBox="0 0 9.1 18.1" style="enable-background:new 0 0 9.1 18.1;" xml:space="preserve">
<style type="text/css">
	.st0{fill:#EB5845;}
</style>
<path id="XMLID_835_" class="st0" d="M0.3,9.6h2v8.2c0,0.2,0.1,0.3,0.3,0.3h3.4c0.2,0,0.3-0.1,0.3-0.3V9.7h2.3
	c0.1,0,0.3-0.1,0.3-0.3l0.3-3c0-0.2-0.1-0.3-0.3-0.3c0,0,0,0,0,0H6.2V4.2c0-0.6,0.3-0.9,0.9-0.9h1.7c0.2,0,0.3-0.1,0.3-0.3V0.3
	C9.1,0.1,9,0,8.8,0c0,0,0,0,0,0H6.5c0,0-0.1,0-0.1,0c-1.1,0-2.1,0.4-3,1.1c-0.8,0.7-1.2,1.7-1,2.8v2.2H0.3C0.1,6.1,0,6.2,0,6.4v3
	C0,9.5,0.1,9.6,0.3,9.6z"/>
</svg>
