<svg xmlns="http://www.w3.org/2000/svg" viewBox="0 0 307 300"><defs><style>.cls-1{fill:#eb5845;}.cls-2{fill:none;stroke:#eb5845;stroke-miterlimit:10;stroke-width:7px;}</style></defs><title>businassman</title><g id="Слой_2" data-name="Слой 2"><g id="Слой_1-2" data-name="Слой 1"><path class="cls-1" d="M170.7,159.36H160.54l-7-6.92v-3.56A33.36,33.36,0,0,0,170,125.24h3.49a8.15,8.15,0,0,0,8.14-8.13v-14A8.15,8.15,0,0,0,173.49,95h-3.06v-17A13.74,13.74,0,0,0,156.7,64.2H141.55a16.52,16.52,0,0,0-31.92,2.49,13.78,13.78,0,0,0-5.84,11.23V95h-3.07a8.14,8.14,0,0,0-8.13,8.13v14a8.14,8.14,0,0,0,8.13,8.13h3.5a33.36,33.36,0,0,0,16.45,23.64v3.56l-7,6.92H103.52A30.55,30.55,0,0,0,73,189.88v33.59A2.53,2.53,0,0,0,75.53,226H95.82a2.54,2.54,0,0,0,0-5.07H78.07V189.88a25.49,25.49,0,0,1,25.45-25.46H111l-9.81,24.52a2.54,2.54,0,0,0,1,3.05l32.46,21.64v7.3H106a2.54,2.54,0,1,0,0,5.07h92.72a2.54,2.54,0,0,0,2.54-2.53V189.88A30.55,30.55,0,0,0,170.7,159.36Zm-.27-39.45V100.05h3.06a3.07,3.07,0,0,1,3.07,3.06v14a3.07,3.07,0,0,1-3.07,3.06h-3.06Zm-69.71.26h0a3.07,3.07,0,0,1-3.06-3.06v-14a3.07,3.07,0,0,1,3.06-3.06h3.07v20.12Zm66.85,68.74-22.45,14.93,11-18.25v0l.06-.1a1.42,1.42,0,0,0,.08-.18.36.36,0,0,0,0-.09c0-.09.06-.17.08-.25s0,0,0,0L160,170.21Zm-30.46-17.84,7.61,7.61-5.86,5.87h-3.5l-5.86-5.87,2.93-2.93Zm-3.31-10.51-8.06-8.11v-1.22a33.32,33.32,0,0,0,22.74,0v1.22l-11.37,11.44Zm14.51,21.71,2.4,2.4-6.32,10.55-1.7-7.34Zm8.38-19.59-4.16,16.64-2.43-2.42h0l-9.41-9.41L151,157.07ZM125.91,58.07a11.47,11.47,0,0,1,11.46,11.46,2.54,2.54,0,0,0,5.07,0v-.27H156.7a8.67,8.67,0,0,1,8.66,8.66V94.7a11.52,11.52,0,0,1-8.64-8.64h2.78a2.54,2.54,0,0,0,0-5.07H125.91a11.46,11.46,0,1,1,0-22.92Zm-17,19.85a8.58,8.58,0,0,1,1.08-4.17,16.57,16.57,0,0,0,7.83,10.15,11.48,11.48,0,0,1-8.91,10.8Zm0,42v-20A16.57,16.57,0,0,0,122.66,86a2.3,2.3,0,0,0,.45,0h28.45a16.58,16.58,0,0,0,13.8,13.8v20a28.25,28.25,0,1,1-56.5,0Zm14.33,37.16,5.46,5.5,4.88,4.91-9.41,9.41h0l-2.43,2.42-4.16-16.64Zm-16.55,31.84,7.52-18.8,3.69,14.76v0h0a1.31,1.31,0,0,0,.09.28l0,.08a2,2,0,0,0,.1.21l0,.08,0,0,10.57,17.62h0l.42.7Zm23.19,6.31-6.32-10.55,2.4-2.4,5.61,5.61Zm3.76,6.26,2.74-11.87h1.56l2.74,11.87-3.52,5.86Zm62.56,19.45H139.64v-7.36L172.1,192a2.54,2.54,0,0,0,1-3.06l-9.89-24.51h7.53a25.49,25.49,0,0,1,25.46,25.46v31.05Z"/><path class="cls-1" d="M165.1,202.74a2.54,2.54,0,0,0-2.54,2.53v8.4a2.54,2.54,0,0,0,2.54,2.53h22.39a2.53,2.53,0,0,0,2.53-2.53v-8.4a2.53,2.53,0,0,0-2.53-2.53Zm19.85,8.4H167.63v-3.33H185Z"/><path class="cls-1" d="M232.27,69.79H198.68A13.75,13.75,0,0,0,185,83.52v33.59a13.75,13.75,0,0,0,13.73,13.73H199v8.66a2.53,2.53,0,0,0,1.73,2.4,2.44,2.44,0,0,0,.8.13,2.54,2.54,0,0,0,2-1l7.64-10.18h21.12A13.75,13.75,0,0,0,246,117.11V83.52A13.75,13.75,0,0,0,232.27,69.79Zm0,56H209.88a2.56,2.56,0,0,0-2,1L204,131.9v-3.6a2.54,2.54,0,0,0-2.54-2.53h-2.8a8.68,8.68,0,0,1-8.66-8.66V83.52a8.68,8.68,0,0,1,8.66-8.66h33.59a8.67,8.67,0,0,1,8.66,8.66v33.59h0A8.67,8.67,0,0,1,232.27,125.77Z"/><path class="cls-1" d="M237.59,83.28s0-.06,0-.09,0-.1,0-.15l0-.09,0-.15,0-.08a1,1,0,0,0-.06-.16s0,0,0-.06,0-.11-.08-.16l0-.06-.1-.15s0,0,0-.06l-.1-.14-.07-.08-.1-.11h0l-.08-.08-.09-.07h0l-.1-.08-.1-.07-.06,0a2.5,2.5,0,0,0-1.1-.38h-5.85a2.54,2.54,0,0,0,0,5.07h.18L218.16,99.81,211.72,93a2.53,2.53,0,0,0-3.92.29l-13.7,19.59a2.54,2.54,0,0,0,.62,3.53,2.55,2.55,0,0,0,3.53-.63l11.92-17,6.26,6.64a2.53,2.53,0,0,0,3.79-.11l12.56-15a2.53,2.53,0,0,0,4.82-1.09V83.54h0v-.09A1,1,0,0,0,237.59,83.28Z"/><ellipse class="cls-2" cx="153.5" cy="150" rx="150" ry="146.5"/></g></g></svg>