<svg xmlns="http://www.w3.org/2000/svg" viewBox="0 0 307 300"><defs><style>.cls-1{fill:none;stroke:#eb5845;stroke-miterlimit:10;stroke-width:7px;}.cls-2{fill:#eb5845;}</style></defs><title>transfer</title><g id="Слой_2" data-name="Слой 2"><g id="Слой_1-2" data-name="Слой 1"><ellipse class="cls-1" cx="153.5" cy="150" rx="150" ry="146.5"/><path class="cls-2" d="M166.06,107.55H160V92.39h6.06v-20L136.53,56h-7.64L99.35,72.41v20h6.07v15.16H99.35v18.19h66.71Zm-35.6-45.49H135l21.83,12.13H108.63Zm-25,18.2H160v6.06H105.42Zm48.52,12.13v15.16h-6.07V92.39Zm-12.13,0v15.16h-6.07V92.39Zm-12.13,0v15.16h-6.07V92.39Zm-12.13,0v15.16h-6.07V92.39ZM160,119.68H105.42v-6.07H160Z"/><polygon class="cls-2" points="193.35 140.9 199.42 140.9 199.42 80.26 172.13 80.26 172.13 86.32 193.35 86.32 193.35 140.9"/><path class="cls-2" d="M193.35,237.94h-97V213.68H72.06V86.32H93.29V80.26H66V218l26,26H199.42V219.74h-6.07ZM90.26,233.65,76.35,219.74H90.26Z"/><path class="cls-2" d="M175.16,140.9a39.42,39.42,0,1,0,39.42,39.42A39.47,39.47,0,0,0,175.16,140.9Zm0,72.78a33.36,33.36,0,1,1,33.36-33.36A33.4,33.4,0,0,1,175.16,213.68Z"/><path class="cls-2" d="M169.1,165.16h12.13a6.07,6.07,0,0,1,6.06,6.07h6.06a12.14,12.14,0,0,0-12.12-12.13h-3V153h-6.06v6.07h-3a12.13,12.13,0,1,0,0,24.25h12.13a6.07,6.07,0,0,1,0,12.13H169.1a6.07,6.07,0,0,1-6.07-6.06H157a12.14,12.14,0,0,0,12.13,12.13h3v6.06h6.06v-6.06h3a12.13,12.13,0,0,0,0-24.26H169.1a6.07,6.07,0,1,1,0-12.13Z"/><polygon class="cls-2" points="244.21 156.06 237.71 165.16 217.61 165.16 217.61 171.23 233.38 171.23 230.31 175.53 235.24 179.05 251.66 156.06 235.24 133.08 230.31 136.6 233.38 140.9 205.48 140.9 205.48 146.97 237.71 146.97 244.21 156.06"/><polygon class="cls-2" points="254 195.48 254 189.42 229.13 189.42 232.21 185.12 227.27 181.59 210.85 204.58 227.27 227.57 232.21 224.04 229.13 219.74 254 219.74 254 213.68 224.8 213.68 218.3 204.58 224.8 195.48 254 195.48"/><polygon class="cls-2" points="132.71 195.48 132.71 189.42 116.94 189.42 120.01 185.12 115.08 181.59 98.66 204.58 115.08 227.57 120.01 224.04 116.94 219.74 147.87 219.74 147.87 213.68 112.61 213.68 106.11 204.58 112.61 195.48 132.71 195.48"/><polygon class="cls-2" points="118.11 175.53 123.05 179.05 139.47 156.06 123.05 133.08 118.11 136.6 121.19 140.9 96.32 140.9 96.32 146.97 125.52 146.97 132.01 156.06 125.52 165.16 96.32 165.16 96.32 171.23 121.19 171.23 118.11 175.53"/></g></g></svg>