<?xml version="1.0" encoding="utf-8"?>
<!-- Generator: Adobe Illustrator 22.0.1, SVG Export Plug-In . SVG Version: 6.00 Build 0)  -->
<svg version="1.1" id="Слой_1" xmlns="http://www.w3.org/2000/svg" xmlns:xlink="http://www.w3.org/1999/xlink" x="0px" y="0px"
	 viewBox="0 0 16.3 13.2" style="enable-background:new 0 0 16.3 13.2;" xml:space="preserve">
<style type="text/css">
	.st0{fill:#EB5845;}
</style>
<path id="Path_11" class="st0" d="M16.3,1.6C15.7,1.8,15,2,14.4,2.1c0.7-0.4,1.2-1.1,1.5-1.8c-0.7,0.4-1.4,0.7-2.1,0.8
	C12.5-0.3,10.3-0.4,9,0.9c-0.9,0.8-1.2,2-1,3.2C5.3,4,2.8,2.7,1.1,0.6c-0.9,1.5-0.4,3.5,1,4.5c-0.5,0-1.1-0.2-1.5-0.4v0
	c0,1.6,1.1,3,2.7,3.3C3.1,8.1,2.8,8.1,2.5,8.1C2.2,8.1,2,8.1,1.8,8c0.4,1.4,1.7,2.3,3.1,2.3c-1.2,0.9-2.6,1.4-4.2,1.4
	c-0.3,0-0.5,0-0.8,0c1.5,1,3.3,1.5,5.1,1.5c5.2,0,9.5-4.2,9.5-9.4c0,0,0-0.1,0-0.1l0-0.4C15.3,2.8,15.9,2.2,16.3,1.6z"/>
</svg>
