<svg xmlns="http://www.w3.org/2000/svg" viewBox="0 0 307 300"><defs><style>.cls-1{fill:none;stroke:#eb5845;stroke-miterlimit:10;stroke-width:7px;}.cls-2{fill:#eb5845;}</style></defs><title>accounting</title><g id="Слой_2" data-name="Слой 2"><g id="Слой_1-2" data-name="Слой 1"><ellipse class="cls-1" cx="153.5" cy="150" rx="150" ry="146.5"/><path class="cls-2" d="M149,112.39a2.25,2.25,0,1,1,2.24-2.24h4.48a6.73,6.73,0,0,0-4.48-6.32V98.94h-4.49v4.89a6.71,6.71,0,0,0,2.25,13,2.24,2.24,0,1,1-2.25,2.24h-4.48a6.73,6.73,0,0,0,4.48,6.32v4.89h4.49v-4.89a6.71,6.71,0,0,0-2.24-13Z"/><polygon class="cls-2" points="92.97 89.97 92.97 103.42 97.45 103.42 97.45 94.45 106.42 94.45 106.42 89.97 92.97 89.97"/><polygon class="cls-2" points="97.45 134.81 97.45 125.84 92.97 125.84 92.97 139.29 106.42 139.29 106.42 134.81 97.45 134.81"/><polygon class="cls-2" points="191.61 89.97 191.61 94.45 200.58 94.45 200.58 103.42 205.06 103.42 205.06 89.97 191.61 89.97"/><path class="cls-2" d="M214,126.07V81H84v67.26h71.74v60.53A11.22,11.22,0,0,0,167,220h44.84A11.22,11.22,0,0,0,223,208.79V137.05A11.23,11.23,0,0,0,214,126.07Zm-58.29,17.7H88.48V85.48H209.55v40.36H171a24.41,24.41,0,0,0,2.72-11.21,24.81,24.81,0,1,0-17.94,23.69Zm.68-10.41a20.24,20.24,0,1,1,9.24-7.39A11.14,11.14,0,0,0,156.42,133.36Zm62.1,75.43a6.74,6.74,0,0,1-6.73,6.73H167a6.73,6.73,0,0,1-6.72-6.73V137.05a6.73,6.73,0,0,1,6.72-6.73h44.84a6.74,6.74,0,0,1,6.73,6.73Z"/><path class="cls-2" d="M200.58,179.65V211H214V179.65Zm9,26.9h-4.49V184.13h4.49Z"/><path class="cls-2" d="M182.65,197.58V211H196.1V197.58Zm9,9h-4.48v-4.49h4.48Z"/><path class="cls-2" d="M164.71,197.58V211h13.45V197.58Zm9,9h-4.49v-4.49h4.49Z"/><path class="cls-2" d="M182.65,179.65V193.1H196.1V179.65Zm9,9h-4.48v-4.48h4.48Z"/><path class="cls-2" d="M164.71,179.65V193.1h13.45V179.65Zm9,9h-4.49v-4.48h4.49Z"/><path class="cls-2" d="M182.65,161.71v13.45H196.1V161.71Zm9,9h-4.48v-4.49h4.48Z"/><path class="cls-2" d="M200.58,161.71v13.45H214V161.71Zm9,9h-4.49v-4.49h4.49Z"/><path class="cls-2" d="M164.71,161.71v13.45h13.45V161.71Zm9,9h-4.49v-4.49h4.49Z"/><path class="cls-2" d="M164.71,134.81v22.42H214V134.81Zm44.84,17.93H169.19V139.29h40.36Z"/><path class="cls-2" d="M140.05,157.23a6.73,6.73,0,0,0-6.73,6.72,2.48,2.48,0,0,0,0,.27l-10.69,4.27a6.61,6.61,0,0,0-9.28-.74l-11.58-6.94a6.62,6.62,0,0,0,.14-1.34,6.8,6.8,0,1,0-2.48,5.17L111,171.58a6.55,6.55,0,0,0-.14,1.34,6.73,6.73,0,1,0,13.45,0c0-.09,0-.18,0-.27L135,168.38a6.71,6.71,0,1,0,5-11.15Zm-44.84,4.48a2.24,2.24,0,1,1,2.24-2.24A2.24,2.24,0,0,1,95.21,161.71Zm22.42,13.45a2.24,2.24,0,1,1,2.24-2.24A2.24,2.24,0,0,1,117.63,175.16Zm22.42-9a2.24,2.24,0,1,1,2.24-2.24A2.24,2.24,0,0,1,140.05,166.19Z"/><path class="cls-2" d="M146.77,215.52V175.16H133.32v40.36h-9V184.13H110.9v31.39h-9V170.68H88.48v44.84H84V220h67.26v-4.48Zm-49.32,0H93V175.16h4.48Zm22.42,0h-4.48V188.61h4.48Zm22.42,0h-4.48V179.65h4.48Z"/><rect class="cls-2" x="160.23" y="112.39" width="4.48" height="4.48"/><rect class="cls-2" x="133.32" y="112.39" width="4.48" height="4.48"/></g></g></svg>