<svg xmlns="http://www.w3.org/2000/svg" viewBox="0 0 307 300"><defs><style>.cls-1{fill:none;stroke:#eb5845;stroke-miterlimit:10;stroke-width:7px;}.cls-2{fill:#eb5845;}</style></defs><title>job-search</title><g id="Слой_2" data-name="Слой 2"><g id="Слой_1-2" data-name="Слой 1"><ellipse class="cls-1" cx="153.5" cy="150" rx="150" ry="146.5"/><path class="cls-2" d="M102.72,83.46V53.36a9.86,9.86,0,0,0-5.59,2.79L70.84,82.65a9.78,9.78,0,0,0-2.74,5.51H98A4.71,4.71,0,0,0,102.72,83.46Z"/><path class="cls-2" d="M68,202.45a9.77,9.77,0,0,0,9.76,9.76h50.18a56.14,56.14,0,0,1-6.12-9.64,55.17,55.17,0,0,1-4.6-13.26,11.46,11.46,0,0,1-8.59-5.22H93.32a5.15,5.15,0,1,1,0-10.29h14.26a11.47,11.47,0,0,1,9.64-7.3,55.69,55.69,0,0,1,3-9.81H93.3a5.15,5.15,0,1,1,0-10.29h32.54a55.87,55.87,0,0,1,18.86-17.1H93.3a5.15,5.15,0,1,1,0-10.29h68.29a11.44,11.44,0,0,1,21.4,4.52,54.55,54.55,0,0,1,12.45,4.21V63a9.78,9.78,0,0,0-9.77-9.77H112.81v30.2A14.81,14.81,0,0,1,98,98.25H68v104.2ZM134.13,81.69h36.59a5.14,5.14,0,1,1,0,10.28H134.13a5.14,5.14,0,1,1,0-10.28Z"/><path class="cls-2" d="M237.28,243.78a7.58,7.58,0,0,0,0-10.69l-21.53-21.53L214,209.77l-1.8-1.8a50.39,50.39,0,0,0,9.56-23.66H225a6.42,6.42,0,1,0,0-12.83h-3.23a50.51,50.51,0,0,0-21.22-35c-.83-.59-1.65-1.13-2.52-1.66s-1.68-1-2.52-1.45A50.11,50.11,0,0,0,178,127.78v-3.23a6.42,6.42,0,0,0-12.83,0v3.23a51.44,51.44,0,0,0-7.33,1.5,50.61,50.61,0,0,0-36.35,42.2h-3.23a6.41,6.41,0,0,0-1.71,12.59,6.92,6.92,0,0,0,1.71.24h3.23a50.34,50.34,0,0,0,13.07,27.9c.81.87,1.64,1.71,2.5,2.52s1.9,1.72,2.91,2.52A50.33,50.33,0,0,0,165.2,228v3.23a6.42,6.42,0,1,0,12.83,0V228a50.21,50.21,0,0,0,23.42-9.36l1.79,1.8,1.82,1.82,21.55,21.54a7.52,7.52,0,0,0,10.67,0Zm-36.8-41.25a40.48,40.48,0,0,1-2.95,3.06,39.56,39.56,0,0,1-5.76,4.46c-.83.53-1.7,1-2.57,1.47a38,38,0,0,1-26.91,3.19,36.46,36.46,0,0,1-7-2.52,38.05,38.05,0,0,1-21.18-28.14,37.35,37.35,0,0,1-.28-10.29,37.67,37.67,0,0,1,6.25-17.11,38.45,38.45,0,0,1,10.29-10.29,38,38,0,0,1,45.07,2c.86.71,1.71,1.45,2.52,2.22s1.71,1.75,2.52,2.68a38,38,0,0,1,0,49.31Z"/><path class="cls-2" d="M185.77,176.54a17.34,17.34,0,0,0-5.28-3.49,39.78,39.78,0,0,0-4.9-1.51V158.37a5.92,5.92,0,0,1,1.19,1,8.69,8.69,0,0,1,1.77,4.48,2,2,0,0,0,2.3,1.7l6.32-.95a2,2,0,0,0,1.69-2.28,15.9,15.9,0,0,0-5.53-10.41,16.18,16.18,0,0,0-7.74-3.35v-1.15a2,2,0,0,0-2-2H170a2,2,0,0,0-2,2v1.15a16.76,16.76,0,0,0-8.49,3.59A16.37,16.37,0,0,0,156,171.74a13.23,13.23,0,0,0,5.28,5.31,28.92,28.92,0,0,0,6.68,2.76V195a7.8,7.8,0,0,1-2.58-2.22,13.78,13.78,0,0,1-2.12-6.29,2,2,0,0,0-2.38-1.7l-6.15,1.15a2,2,0,0,0-1.64,2.12,19,19,0,0,0,2.75,9,14.88,14.88,0,0,0,5.75,5.49,22.45,22.45,0,0,0,6.37,2v4.38a2,2,0,0,0,2,2h3.61a2,2,0,0,0,2-2v-4.36a16.37,16.37,0,0,0,9.9-5,16.81,16.81,0,0,0,4.6-12,16.51,16.51,0,0,0-1.11-6.12A15,15,0,0,0,185.77,176.54Zm-18.21-6.94a6.72,6.72,0,0,1-2.36-1.73,6.46,6.46,0,0,1,.26-8.07,6.12,6.12,0,0,1,2.1-1.54Zm10,23.87a7.15,7.15,0,0,1-2.36,1.79V182.19a8.07,8.07,0,0,1,3,2,6.19,6.19,0,0,1,1.19,4.07A7.68,7.68,0,0,1,177.56,193.47Z"/></g></g></svg>