<svg xmlns="http://www.w3.org/2000/svg" viewBox="0 0 423 423"><defs><style>.cls-1{fill:#eb5845;}.cls-2{fill:none;stroke:#eb5845;stroke-miterlimit:10;stroke-width:7px;}</style></defs><title>Ресурс 1</title><g id="Слой_2" data-name="Слой 2"><g id="Слой_1-2" data-name="Слой 1"><path class="cls-1" d="M328.4,114.6H94.6a7.55,7.55,0,0,0-7.5,7.5V260.3a7.55,7.55,0,0,0,7.5,7.5H328.4a7.55,7.55,0,0,0,7.5-7.5V122.1a7.49,7.49,0,0,0-7.5-7.5Zm1,145.7a1,1,0,0,1-1,1H94.6a1,1,0,0,1-1-1V122.1a1,1,0,0,1,1-1H328.4a1,1,0,0,1,1,1V260.3Z"/><path class="cls-1" d="M358.1,272.6h-7.6V118.5A18.52,18.52,0,0,0,332,100H91a18.52,18.52,0,0,0-18.5,18.5V272.6H64.9a4.91,4.91,0,0,0-4.9,4.9v13.4a15.73,15.73,0,0,0,15.7,15.7H347.1a15.73,15.73,0,0,0,15.7-15.7V277.5A4.74,4.74,0,0,0,358.1,272.6ZM82.2,118.5a8.75,8.75,0,0,1,8.8-8.8H331.9a8.75,8.75,0,0,1,8.8,8.8V272.6H82.2V118.5Zm115,163.9h28.5v2.5a2.11,2.11,0,0,1-2.1,2.1H199.2a2.11,2.11,0,0,1-2.1-2.1l.1-2.5Zm156,8.5a6,6,0,0,1-6,6H75.7a6,6,0,0,1-6-6v-8.5h121v2.5a8.49,8.49,0,0,0,8.5,8.5h24.4a8.49,8.49,0,0,0,8.5-8.5v-2.5h121v8.5Z"/><g id="Page-1"><g id="logo"><g id="Group"><path id="Fill-9" class="cls-1" d="M111.9,239.3a2.92,2.92,0,0,0-.2-.9,2.18,2.18,0,0,0-.5-.8,1.79,1.79,0,0,0-.7-.5,2.92,2.92,0,0,0-.9-.2h-5.8v4.8h5.6a3.55,3.55,0,0,0,1-.2,2.1,2.1,0,0,0,1.3-1.3A2.92,2.92,0,0,0,111.9,239.3Zm-8.1-9.9V234h5a2.27,2.27,0,0,0,1.6-.6,2.41,2.41,0,0,0,.7-1.7,2.35,2.35,0,0,0-.6-1.7,2,2,0,0,0-1.5-.6ZM115.7,240a3.94,3.94,0,0,1-.5,2,4,4,0,0,1-1.4,1.5,6.11,6.11,0,0,1-2,.9,9.86,9.86,0,0,1-2.4.3H100V226.4h10.4a3.42,3.42,0,0,1,1.8.4,4.86,4.86,0,0,1,1.4,1.1,3.77,3.77,0,0,1,.9,1.5,5.08,5.08,0,0,1,.3,1.7,4.51,4.51,0,0,1-.7,2.5,3.92,3.92,0,0,1-2.1,1.7,4.77,4.77,0,0,1,2.6,1.7A4,4,0,0,1,115.7,240Z"/><path id="Fill-10" class="cls-1" d="M122.8,232.7a10.32,10.32,0,0,0,.4,3,8.3,8.3,0,0,0,1.2,2.5,7,7,0,0,0,2,1.8,6,6,0,0,0,2.7.7,5,5,0,0,0,2.7-.7,7,7,0,0,0,2-1.8,8.23,8.23,0,0,0,1.2-2.5,9.25,9.25,0,0,0,.4-2.9,10.32,10.32,0,0,0-.4-3,6.61,6.61,0,0,0-1.3-2.5,5.51,5.51,0,0,0-2-1.7,6,6,0,0,0-2.7-.6,5,5,0,0,0-2.7.7,7,7,0,0,0-2,1.8,9.65,9.65,0,0,0-1.2,2.5A20.22,20.22,0,0,0,122.8,232.7Zm6.3,12a8.8,8.8,0,0,1-4.3-1,10.87,10.87,0,0,1-3.3-2.7,13,13,0,0,1-2.2-3.8,12.78,12.78,0,0,1,0-8.9,13,13,0,0,1,2.2-3.8,10.65,10.65,0,0,1,3.4-2.6,9.74,9.74,0,0,1,8.6,0,10.87,10.87,0,0,1,3.3,2.7,14.67,14.67,0,0,1,2.2,3.9,12.78,12.78,0,0,1,0,8.9,13,13,0,0,1-2.2,3.8,9.66,9.66,0,0,1-3.4,2.6A10,10,0,0,1,129.1,244.7Z"/><g id="Group-16"><path id="Fill-11" class="cls-1" d="M149,228.1a14.53,14.53,0,0,0,.6,4.1,10.56,10.56,0,0,0,1.8,3.5,9.55,9.55,0,0,0,2.9,2.4,8.6,8.6,0,0,0,3.9.9,8.72,8.72,0,0,0,4-.9,7.76,7.76,0,0,0,2.9-2.5,10.56,10.56,0,0,0,1.8-3.5,13.2,13.2,0,0,0,.6-3.9,11.79,11.79,0,0,0-.7-4.1,12.85,12.85,0,0,0-1.8-3.5,9.55,9.55,0,0,0-2.9-2.4,8.6,8.6,0,0,0-3.9-.9,8.72,8.72,0,0,0-4,.9,7.06,7.06,0,0,0-2.9,2.5,10.56,10.56,0,0,0-1.8,3.5A16,16,0,0,0,149,228.1Zm9.3,16.4a14.82,14.82,0,0,1-11.3-5.1,16.69,16.69,0,0,1-3.2-5.3,16.06,16.06,0,0,1-1.1-6.1,16.3,16.3,0,0,1,1.2-6.2,16.25,16.25,0,0,1,8.3-8.8,15.38,15.38,0,0,1,12.6.1,16.93,16.93,0,0,1,8.1,9.1,15.91,15.91,0,0,1,1.1,6,16.3,16.3,0,0,1-1.2,6.2,16.47,16.47,0,0,1-3.3,5.2,15.08,15.08,0,0,1-11.2,4.9Z"/><path id="Fill-13" class="cls-1" d="M204.3,213.6a14.85,14.85,0,0,0-1.5-1.1,20.37,20.37,0,0,0-2.6-1.4,25.51,25.51,0,0,0-3.3-1.1,15,15,0,0,0-3.7-.5,8,8,0,0,0-4.9,1.2,4.06,4.06,0,0,0-1.6,3.5,3.28,3.28,0,0,0,.6,2.1,4.53,4.53,0,0,0,1.8,1.5A28.52,28.52,0,0,0,192,219c1.2.4,2.5.7,4.1,1.1a39.41,39.41,0,0,1,5.5,1.8,16.86,16.86,0,0,1,4.2,2.3,9.66,9.66,0,0,1,2.6,3.4,11.42,11.42,0,0,1,.9,4.8,12.61,12.61,0,0,1-1.2,5.7,9.65,9.65,0,0,1-3.4,3.8,12.79,12.79,0,0,1-4.9,2.1,27.09,27.09,0,0,1-5.8.7,32.07,32.07,0,0,1-9.2-1.4,27.85,27.85,0,0,1-8.1-4l3.5-7a13.34,13.34,0,0,0,1.9,1.4,31,31,0,0,0,3.2,1.7,21.88,21.88,0,0,0,4.1,1.4,18.16,18.16,0,0,0,4.6.6c4.4,0,6.6-1.4,6.6-4.3a3.57,3.57,0,0,0-.8-2.3,5.84,5.84,0,0,0-2.1-1.6,18.65,18.65,0,0,0-3.4-1.3c-1.3-.4-2.8-.8-4.4-1.3a25.06,25.06,0,0,1-5.1-1.8,10.63,10.63,0,0,1-3.6-2.3,8.94,8.94,0,0,1-2.2-3,10,10,0,0,1-.7-4.1,12.47,12.47,0,0,1,1.2-5.6,11.7,11.7,0,0,1,3.2-4.1,15.65,15.65,0,0,1,4.8-2.5,18.72,18.72,0,0,1,5.9-.8,22.76,22.76,0,0,1,8,1.4,31.85,31.85,0,0,1,6.4,3.2l-3.5,6.6"/><polyline id="Fill-14" class="cls-1" points="253.9 202.1 237.8 202.1 237.8 244.2 228.1 244.2 228.1 202.1 212 202.1 212 193.4 253.9 193.4 253.9 202.1"/><path id="Fill-15" class="cls-1" d="M276.4,213.9h14.5a6.11,6.11,0,0,0,3-.8,7.91,7.91,0,0,0,2.4-2.1,10.1,10.1,0,0,0,1.6-3.1,12.09,12.09,0,0,0,.6-3.8,10,10,0,0,0-.7-3.9,10.52,10.52,0,0,0-1.8-3.1,7,7,0,0,0-2.6-2,6.58,6.58,0,0,0-3-.7h-14Zm-11.6,30.3v-60h26.3a17.63,17.63,0,0,1,7.6,1.7,20.87,20.87,0,0,1,6,4.6,20,20,0,0,1,3.9,6.4,18.45,18.45,0,0,1,1.4,7.2,20.33,20.33,0,0,1-2.9,10.6,16.31,16.31,0,0,1-7.8,6.9l13.6,22.6h-13l-12.2-20.1H276.3v20.1Z"/></g></g></g></g><circle class="cls-2" cx="211.5" cy="211.5" r="208"/></g></g></svg>