<svg xmlns="http://www.w3.org/2000/svg" viewBox="0 0 307 300"><defs><style>.cls-1{fill:none;stroke:#eb5845;stroke-miterlimit:10;stroke-width:7px;}.cls-2{fill:#eb5845;}</style></defs><title>presentation</title><g id="Слой_2" data-name="Слой 2"><g id="Слой_1-2" data-name="Слой 1"><ellipse class="cls-1" cx="153.5" cy="150" rx="150" ry="146.5"/><path class="cls-2" d="M112.74,102.45a16.46,16.46,0,0,0-11.88-5H100a16.44,16.44,0,0,0-11.87,5,15.22,15.22,0,0,0-4.29,11.28l.32,7.45a15.91,15.91,0,0,0,16.16,15h.21a15.91,15.91,0,0,0,16.16-15l.33-7.45A15.18,15.18,0,0,0,112.74,102.45ZM111.17,121a10.39,10.39,0,0,1-10.63,9.68h-.21A10.38,10.38,0,0,1,89.7,121l-.1-2.26a25,25,0,0,0,14.47-5.43,12.33,12.33,0,0,0,7.21,5.06Zm-3.47-13.08a2.78,2.78,0,0,0-2.21-2.36,2.75,2.75,0,0,0-2.94,1.33c0,.06-3.47,5.49-13.16,6.32a9.77,9.77,0,0,1,2.74-6.87A10.93,10.93,0,0,1,100,103h.85a10.89,10.89,0,0,1,7.87,3.32,9.66,9.66,0,0,1,2.7,6.21A6.56,6.56,0,0,1,107.7,107.87Z"/><path class="cls-2" d="M220.64,168.85a16.46,16.46,0,0,0-11.88-5h-.85a16.44,16.44,0,0,0-11.87,5,15.18,15.18,0,0,0-4.29,11.28l.32,7.45a15.91,15.91,0,0,0,16.16,15h.21a15.92,15.92,0,0,0,16.16-15l.33-7.45A15.22,15.22,0,0,0,220.64,168.85Zm-1.24,11.06-.33,7.44A10.39,10.39,0,0,1,208.44,197h-.21a10.38,10.38,0,0,1-10.63-9.68l-.33-7.46a9.74,9.74,0,0,1,2.76-7.2,10.93,10.93,0,0,1,7.88-3.32h.85a10.89,10.89,0,0,1,7.87,3.32A9.74,9.74,0,0,1,219.4,179.91Z"/><path class="cls-2" d="M155.47,107.24a7.64,7.64,0,0,0-10.65,0l-30.89,30.88a2.76,2.76,0,0,1-2,.81H83.83A13.86,13.86,0,0,0,70,152.77V191.5a8.31,8.31,0,0,0,8.3,8.3,8.44,8.44,0,0,0,2.77-.47v3.24a2.77,2.77,0,0,0,2.76,2.76H117a2.77,2.77,0,0,0,2.77-2.76V157.71a2.76,2.76,0,0,1,.74-1.89l35.11-37.76A7.65,7.65,0,0,0,155.47,107.24Zm-3.77,7,0,0-35.19,37.84a8.26,8.26,0,0,0-2.21,5.65V199.8H86.6V158.3a2.77,2.77,0,1,0-5.53,0v33.2a2.77,2.77,0,0,1-5.54,0V152.77a8.3,8.3,0,0,1,8.3-8.3H112a8.23,8.23,0,0,0,5.87-2.44l30.89-30.88a2.19,2.19,0,0,1,3,0A2.16,2.16,0,0,1,151.7,114.2Z"/><path class="cls-2" d="M100.43,147.23A2.77,2.77,0,0,0,97.67,150v33.2a2.77,2.77,0,1,0,5.53,0V150A2.77,2.77,0,0,0,100.43,147.23Z"/><path class="cls-2" d="M159.76,168.85a16.44,16.44,0,0,0-11.87-5H147a16.45,16.45,0,0,0-11.87,5,15.22,15.22,0,0,0-4.29,11.28l.32,7.45a15.91,15.91,0,0,0,16.16,15h.21a15.91,15.91,0,0,0,16.16-15l.32-7.45A15.22,15.22,0,0,0,159.76,168.85Zm-1.23,11.06-.33,7.44A10.38,10.38,0,0,1,147.57,197h-.21a10.39,10.39,0,0,1-10.63-9.68l-.33-7.46a9.71,9.71,0,0,1,2.77-7.2,10.89,10.89,0,0,1,7.87-3.32h.85a10.93,10.93,0,0,1,7.88,3.32A9.77,9.77,0,0,1,158.53,179.91Z"/><path class="cls-2" d="M161.76,205.33H133.17A13.39,13.39,0,0,0,119.8,218.7v11.53a2.77,2.77,0,1,0,5.53,0V218.7a7.84,7.84,0,0,1,7.84-7.83h28.59a7.84,7.84,0,0,1,7.84,7.83v11.53a2.77,2.77,0,1,0,5.53,0V218.7A13.38,13.38,0,0,0,161.76,205.33Z"/><path class="cls-2" d="M222.63,205.33H194a13.38,13.38,0,0,0-13.37,13.37v11.53a2.77,2.77,0,1,0,5.53,0V218.7a7.84,7.84,0,0,1,7.84-7.83h28.59a7.84,7.84,0,0,1,7.84,7.83v11.53a2.77,2.77,0,1,0,5.53,0V218.7A13.39,13.39,0,0,0,222.63,205.33Z"/><path class="cls-2" d="M227.84,67H130.73a8.24,8.24,0,0,0-8.16,8.3v41.5a2.77,2.77,0,1,0,5.53,0V83.6H230.47V150a2.71,2.71,0,0,1-2.63,2.77H133.43a2.77,2.77,0,1,0,0,5.53h94.41A8.24,8.24,0,0,0,236,150V75.3A8.24,8.24,0,0,0,227.84,67Zm2.63,11.07H128.1V75.3a2.7,2.7,0,0,1,2.63-2.77h97.11a2.71,2.71,0,0,1,2.63,2.77Z"/><path class="cls-2" d="M222.17,102.27A2.77,2.77,0,0,0,219.4,105v39.43a2.77,2.77,0,0,0,5.53,0V105A2.77,2.77,0,0,0,222.17,102.27Z"/><path class="cls-2" d="M211.1,119.57a2.77,2.77,0,0,0-2.77,2.76v22.14a2.77,2.77,0,0,0,5.54,0V122.33A2.77,2.77,0,0,0,211.1,119.57Z"/><path class="cls-2" d="M200,114a2.77,2.77,0,0,0-2.76,2.77v27.67a2.77,2.77,0,0,0,5.53,0V116.8A2.77,2.77,0,0,0,200,114Z"/><path class="cls-2" d="M189,130.63a2.77,2.77,0,0,0-2.77,2.77v11.07a2.77,2.77,0,0,0,5.53,0V133.4A2.77,2.77,0,0,0,189,130.63Z"/><path class="cls-2" d="M223.7,89.6a2.77,2.77,0,0,0-3.84.76l-9.44,14.17L201.69,98a2.75,2.75,0,0,0-3.87.53,3,3,0,0,0-.28.44l-10.77,21.55-10.53,7.91a2.77,2.77,0,0,0,3.32,4.43l11.07-8.3a2.92,2.92,0,0,0,.83-1L201,104.4l8.4,6.31a2.76,2.76,0,0,0,3.87-.55l.09-.12,11.07-16.6A2.77,2.77,0,0,0,223.7,89.6Z"/><path class="cls-2" d="M169.6,89.13H136.4a2.77,2.77,0,0,0,0,5.54h33.2a2.77,2.77,0,1,0,0-5.54Z"/><path class="cls-2" d="M186.2,89.13h-5.53a2.77,2.77,0,1,0,0,5.54h5.53a2.77,2.77,0,1,0,0-5.54Z"/></g></g></svg>