<?xml version="1.0" encoding="utf-8"?>
<!-- Generator: Adobe Illustrator 22.0.1, SVG Export Plug-In . SVG Version: 6.00 Build 0)  -->
<svg version="1.1" id="Слой_1" xmlns="http://www.w3.org/2000/svg" xmlns:xlink="http://www.w3.org/1999/xlink" x="0px" y="0px"
	 viewBox="0 0 14.8 12.9" style="enable-background:new 0 0 14.8 12.9;" xml:space="preserve">
<style type="text/css">
	.st0{fill:#EB5845;}
</style>
<path id="XMLID_497_" class="st0" d="M0.3,6.2l3.4,1.3L5,11.7C5.1,11.9,5.3,12,5.5,12c0.1,0,0.1,0,0.1-0.1l1.9-1.5
	c0.2-0.2,0.5-0.2,0.7,0l3.4,2.5c0.2,0.1,0.4,0.1,0.6-0.1c0,0,0.1-0.1,0.1-0.2l2.5-12.1c0-0.2-0.1-0.4-0.3-0.5c-0.1,0-0.2,0-0.2,0
	l-14,5.4C0.1,5.5-0.1,5.7,0,5.9C0.1,6,0.2,6.1,0.3,6.2z M4.8,6.8l6.7-4.1c0.1,0,0.1,0,0.2,0c0,0,0,0.1,0,0.1L6.1,8
	C5.9,8.1,5.8,8.4,5.7,8.6L5.5,10c0,0.1-0.1,0.2-0.2,0.1c-0.1,0-0.1-0.1-0.1-0.1L4.5,7.5C4.4,7.2,4.5,6.9,4.8,6.8z"/>
</svg>
