<?xml version="1.0" encoding="utf-8"?>
<!-- Generator: Adobe Illustrator 22.0.1, SVG Export Plug-In . SVG Version: 6.00 Build 0)  -->
<svg version="1.1" id="Слой_1" xmlns="http://www.w3.org/2000/svg" xmlns:xlink="http://www.w3.org/1999/xlink" x="0px" y="0px"
	 viewBox="0 0 151 43" style="enable-background:new 0 0 151 43;" xml:space="preserve">
<style type="text/css">
	.st0{fill:#EB5845;}
	.st1{filter:url(#Adobe_OpacityMaskFilter);}
	.st2{fill:#FFFFFF;}
	.st3{mask:url(#mask-2_1_);fill:#EB5845;}
	.st4{filter:url(#Adobe_OpacityMaskFilter_1_);}
	.st5{mask:url(#mask-2_2_);fill:#EB5845;}
	.st6{filter:url(#Adobe_OpacityMaskFilter_2_);}
	.st7{mask:url(#mask-2_3_);fill:#EB5845;}
	.st8{filter:url(#Adobe_OpacityMaskFilter_3_);}
	.st9{mask:url(#mask-2_4_);fill:#EB5845;}
</style>
<title>Group</title>
<desc>Created with Sketch.</desc>
<g id="Page-1">
	<g id="logo" transform="translate(-882.000000, -319.000000)">
		<g id="Group" transform="translate(882.000000, 319.000000)">
			<path id="Fill-9" class="st0" d="M8.4,39.2c0-0.2,0-0.5-0.1-0.7c-0.1-0.2-0.2-0.4-0.3-0.6c-0.1-0.2-0.3-0.3-0.5-0.4
				c-0.2-0.1-0.4-0.1-0.6-0.1H2.7v3.4h4c0.2,0,0.5,0,0.7-0.1c0.2-0.1,0.4-0.2,0.6-0.4C8,40.2,8.2,40,8.2,39.8
				C8.3,39.6,8.4,39.4,8.4,39.2z M2.7,32.2v3.3h3.6c0.5,0,0.8-0.1,1.2-0.4c0.3-0.3,0.5-0.7,0.5-1.2c0-0.5-0.1-0.9-0.4-1.2
				c-0.3-0.3-0.6-0.4-1.1-0.4H2.7z M11.1,39.6c0,0.5-0.1,1-0.3,1.4c-0.2,0.4-0.6,0.8-1,1c-0.4,0.3-0.9,0.5-1.4,0.6
				C7.8,42.9,7.2,43,6.6,43H0V30h7.4c0.5,0,0.9,0.1,1.3,0.3c0.4,0.2,0.7,0.4,1,0.8c0.3,0.3,0.5,0.7,0.6,1.1c0.1,0.4,0.2,0.8,0.2,1.2
				c0,0.6-0.2,1.2-0.5,1.8c-0.3,0.6-0.8,1-1.5,1.2c0.8,0.2,1.4,0.6,1.9,1.2C10.8,38.1,11.1,38.8,11.1,39.6z"/>
			<path id="Fill-10" class="st0" d="M16.1,34.5c0,0.7,0.1,1.4,0.3,2.1c0.2,0.7,0.5,1.3,0.9,1.8c0.4,0.5,0.9,0.9,1.4,1.3
				c0.6,0.3,1.2,0.5,1.9,0.5c0.7,0,1.4-0.2,1.9-0.5c0.6-0.3,1-0.8,1.4-1.3c0.4-0.5,0.7-1.1,0.9-1.8c0.2-0.7,0.3-1.3,0.3-2
				c0-0.7-0.1-1.4-0.3-2.1c-0.2-0.7-0.5-1.3-0.9-1.8c-0.4-0.5-0.9-0.9-1.4-1.2c-0.6-0.3-1.2-0.5-1.9-0.5c-0.7,0-1.4,0.2-1.9,0.5
				c-0.6,0.3-1,0.7-1.4,1.3c-0.4,0.5-0.7,1.1-0.9,1.8C16.2,33.1,16.1,33.8,16.1,34.5z M20.6,43c-1.1,0-2.2-0.2-3.1-0.7
				c-0.9-0.5-1.7-1.1-2.4-1.9c-0.7-0.8-1.2-1.7-1.5-2.7c-0.4-1-0.5-2.1-0.5-3.1c0-1.1,0.2-2.2,0.6-3.2c0.4-1,0.9-1.9,1.6-2.7
				c0.7-0.8,1.5-1.4,2.4-1.9c0.9-0.5,1.9-0.7,3-0.7c1.1,0,2.1,0.2,3.1,0.7c0.9,0.5,1.7,1.1,2.4,1.9c0.7,0.8,1.2,1.7,1.5,2.7
				c0.4,1,0.5,2.1,0.5,3.1c0,1.1-0.2,2.2-0.6,3.2c-0.4,1-0.9,1.9-1.6,2.7c-0.7,0.8-1.5,1.4-2.4,1.9C22.7,42.8,21.7,43,20.6,43z"/>
			<g id="Group-16" transform="translate(30.200000, 0.000000)">
				<g id="Clip-12">
				</g>
				<defs>
					<filter id="Adobe_OpacityMaskFilter" filterUnits="userSpaceOnUse" x="0" y="19.6" width="22.2" height="23.3">
						<feColorMatrix  type="matrix" values="1 0 0 0 0  0 1 0 0 0  0 0 1 0 0  0 0 0 1 0"/>
					</filter>
				</defs>
				<mask maskUnits="userSpaceOnUse" x="0" y="19.6" width="22.2" height="23.3" id="mask-2_1_">
					<g class="st1">
						<polygon id="path-1_1_" class="st2" points="0,0.1 120.8,0.1 120.8,43 0,43 						"/>
					</g>
				</mask>
				<path id="Fill-11" class="st3" d="M4.5,31.2c0,1,0.1,1.9,0.4,2.9c0.3,0.9,0.7,1.7,1.3,2.5c0.6,0.7,1.3,1.3,2.1,1.7
					c0.8,0.4,1.8,0.6,2.8,0.6c1.1,0,2-0.2,2.8-0.7c0.8-0.4,1.5-1,2.1-1.8c0.6-0.7,1-1.6,1.3-2.5c0.3-0.9,0.4-1.8,0.4-2.8
					c0-1-0.2-1.9-0.5-2.9c-0.3-0.9-0.7-1.7-1.3-2.5c-0.6-0.7-1.3-1.3-2.1-1.7c-0.8-0.4-1.7-0.6-2.8-0.6c-1.1,0-2,0.2-2.8,0.7
					c-0.8,0.4-1.5,1-2.1,1.7c-0.6,0.7-1,1.5-1.3,2.5C4.7,29.3,4.5,30.3,4.5,31.2z M11.1,42.8c-1.7,0-3.2-0.3-4.5-1
					c-1.4-0.7-2.5-1.5-3.5-2.6c-1-1.1-1.7-2.3-2.3-3.7C0.3,34.1,0,32.7,0,31.2c0-1.5,0.3-3,0.8-4.4c0.6-1.4,1.3-2.6,2.3-3.7
					c1-1.1,2.2-1.9,3.5-2.6c1.4-0.6,2.9-1,4.5-1c1.6,0,3.1,0.3,4.5,1c1.4,0.7,2.5,1.6,3.5,2.7c1,1.1,1.7,2.3,2.2,3.7
					c0.5,1.4,0.8,2.8,0.8,4.3c0,1.5-0.3,3-0.8,4.4c-0.6,1.4-1.3,2.6-2.3,3.7c-1,1.1-2.2,1.9-3.5,2.6C14.2,42.5,12.7,42.8,11.1,42.8z
					"/>
				<defs>
					<filter id="Adobe_OpacityMaskFilter_1_" filterUnits="userSpaceOnUse" x="24.1" y="13" width="23.1" height="30">
						<feColorMatrix  type="matrix" values="1 0 0 0 0  0 1 0 0 0  0 0 1 0 0  0 0 0 1 0"/>
					</filter>
				</defs>
				<mask maskUnits="userSpaceOnUse" x="24.1" y="13" width="23.1" height="30" id="mask-2_2_">
					<g class="st4">
						<polygon id="path-1_2_" class="st2" points="0,0.1 120.8,0.1 120.8,43 0,43 						"/>
					</g>
				</mask>
				<path id="Fill-13" class="st5" d="M43.7,20.9c-0.2-0.2-0.5-0.5-1-0.8c-0.5-0.3-1.1-0.7-1.9-1c-0.7-0.3-1.5-0.6-2.4-0.8
					c-0.9-0.2-1.7-0.3-2.6-0.3c-1.6,0-2.7,0.3-3.5,0.9c-0.8,0.6-1.2,1.4-1.2,2.5c0,0.6,0.1,1.1,0.4,1.5c0.3,0.4,0.7,0.8,1.3,1.1
					c0.6,0.3,1.2,0.6,2.1,0.8c0.8,0.2,1.8,0.5,2.9,0.8c1.4,0.4,2.7,0.8,3.9,1.2c1.2,0.4,2.2,1,3,1.7c0.8,0.7,1.4,1.5,1.9,2.4
					c0.4,0.9,0.7,2.1,0.7,3.4c0,1.6-0.3,2.9-0.9,4c-0.6,1.1-1.4,2-2.4,2.7c-1,0.7-2.2,1.2-3.5,1.5c-1.3,0.3-2.7,0.5-4.1,0.5
					c-2.2,0-4.4-0.3-6.5-1c-2.1-0.7-4.1-1.6-5.8-2.8l2.5-4.9c0.2,0.2,0.7,0.6,1.3,1c0.6,0.4,1.4,0.8,2.3,1.2c0.9,0.4,1.9,0.7,2.9,1
					c1.1,0.3,2.2,0.4,3.3,0.4c3.1,0,4.7-1,4.7-3c0-0.6-0.2-1.2-0.5-1.6c-0.4-0.4-0.9-0.8-1.5-1.2c-0.7-0.3-1.5-0.6-2.4-0.9
					c-0.9-0.3-2-0.6-3.1-0.9c-1.4-0.4-2.6-0.8-3.6-1.3c-1-0.5-1.9-1-2.6-1.6c-0.7-0.6-1.2-1.3-1.5-2.2c-0.3-0.8-0.5-1.8-0.5-2.9
					c0-1.5,0.3-2.8,0.8-4c0.6-1.2,1.3-2.1,2.3-2.9c1-0.8,2.1-1.4,3.4-1.8c1.3-0.4,2.7-0.6,4.2-0.6c2.1,0,4,0.3,5.7,1
					c1.7,0.7,3.2,1.4,4.5,2.3L43.7,20.9"/>
				<defs>
					<filter id="Adobe_OpacityMaskFilter_2_" filterUnits="userSpaceOnUse" x="49.2" y="6.6" width="29.7" height="36">
						<feColorMatrix  type="matrix" values="1 0 0 0 0  0 1 0 0 0  0 0 1 0 0  0 0 0 1 0"/>
					</filter>
				</defs>
				<mask maskUnits="userSpaceOnUse" x="49.2" y="6.6" width="29.7" height="36" id="mask-2_3_">
					<g class="st6">
						<polygon id="path-1_3_" class="st2" points="0,0.1 120.8,0.1 120.8,43 0,43 						"/>
					</g>
				</mask>
				<polyline id="Fill-14" class="st7" points="78.9,12.8 67.5,12.8 67.5,42.7 60.6,42.7 60.6,12.8 49.2,12.8 49.2,6.6 78.9,6.6 
					78.9,12.8 				"/>
				<defs>
					<filter id="Adobe_OpacityMaskFilter_3_" filterUnits="userSpaceOnUse" x="86.7" y="0.1" width="34.1" height="42.6">
						<feColorMatrix  type="matrix" values="1 0 0 0 0  0 1 0 0 0  0 0 1 0 0  0 0 0 1 0"/>
					</filter>
				</defs>
				<mask maskUnits="userSpaceOnUse" x="86.7" y="0.1" width="34.1" height="42.6" id="mask-2_4_">
					<g class="st8">
						<polygon id="path-1_4_" class="st2" points="0,0.1 120.8,0.1 120.8,43 0,43 						"/>
					</g>
				</mask>
				<path id="Fill-15" class="st9" d="M94.9,21.1h10.3c0.8,0,1.5-0.2,2.1-0.5c0.7-0.4,1.2-0.8,1.7-1.5c0.5-0.6,0.9-1.3,1.1-2.2
					c0.3-0.8,0.4-1.7,0.4-2.7c0-1-0.2-1.9-0.5-2.8c-0.3-0.8-0.7-1.6-1.3-2.2c-0.5-0.6-1.2-1.1-1.8-1.4c-0.7-0.3-1.4-0.5-2.1-0.5
					h-9.9V21.1z M86.7,42.7V0.1h18.7c1.9,0,3.7,0.4,5.4,1.2c1.6,0.8,3.1,1.9,4.2,3.2c1.2,1.3,2.1,2.9,2.8,4.6c0.7,1.7,1,3.4,1,5.1
					c0,2.8-0.7,5.3-2.1,7.5c-1.4,2.3-3.2,3.9-5.6,4.9l9.6,16h-9.2L103,28.4h-8.1v14.3H86.7z"/>
			</g>
		</g>
	</g>
</g>
</svg>
