<?xml version="1.0" encoding="UTF-8"?>
<svg width="151px" height="43px" viewBox="0 0 151 43" version="1.1" xmlns="http://www.w3.org/2000/svg" xmlns:xlink="http://www.w3.org/1999/xlink">
    <!-- Generator: Sketch 50.2 (55047) - http://www.bohemiancoding.com/sketch -->
    <title>Group</title>
    <desc>Created with Sketch.</desc>
    <defs>
        <polygon id="path-1" points="0.0270023529 0.0791916667 120.785788 0.0791916667 120.785788 42.9785 0.0270023529 42.9785"></polygon>
    </defs>
    <g id="Page-1" stroke="none" stroke-width="1" fill="none" fill-rule="evenodd">
        <g id="logo" transform="translate(-882.000000, -319.000000)">
            <g id="Group" transform="translate(882.000000, 319.000000)">
                <path d="M8.38251447,39.1736132 C8.38251447,38.9414512 8.34059434,38.7185757 8.25675409,38.5049867 C8.17253618,38.2917548 8.0596162,38.105668 7.91799416,37.9470836 C7.77561679,37.7888562 7.60793629,37.6634887 7.41457499,37.5716955 C7.22121369,37.4799022 7.00821414,37.4345413 6.77557632,37.4345413 L2.67155827,37.4345413 L2.67155827,40.8580378 L6.63999682,40.8580378 C6.88509737,40.8580378 7.11433626,40.8151771 7.32733581,40.7294557 C7.54033537,40.6448059 7.7242552,40.5255103 7.8790953,40.3729978 C8.0339354,40.2204852 8.15667451,40.0404704 8.24693496,39.8329533 C8.33719541,39.6257933 8.38251447,39.4050609 8.38251447,39.1736132 Z M2.67155827,32.1612496 L2.67155827,35.4383054 L6.23363596,35.4383054 C6.68531587,35.4383054 7.0690172,35.2915075 7.38549527,34.9993406 C7.70159567,34.7061022 7.8598347,34.3032118 7.8598347,33.7906696 C7.8598347,33.289914 7.71443607,32.8930956 7.42439412,32.6012858 C7.13397451,32.3076902 6.77557632,32.1612496 6.34957721,32.1612496 L2.67155827,32.1612496 Z M11.0733333,39.6497239 C11.0733333,40.1990549 10.9573921,40.6819518 10.7247543,41.0966288 C10.4928718,41.5113059 10.1733724,41.8595489 9.76663393,42.1395719 C9.36027307,42.4210237 8.8889549,42.6342556 8.35343474,42.7810534 C7.81791458,42.927494 7.24651683,43 6.63999682,43 L0,43 L0,30 L7.35641554,30 C7.83377625,30 8.26619556,30.0978652 8.65367348,30.2932385 C9.04077373,30.4889689 9.3700922,30.7414897 9.64087355,31.0540154 C9.91203256,31.3651125 10.1216332,31.7190703 10.2700531,32.1148172 C10.4180953,32.5116356 10.4928718,32.9123829 10.4928718,33.3152732 C10.4928718,33.9492541 10.3248136,34.5443031 9.98945261,35.099706 C9.65371395,35.6551089 9.16313518,36.0676429 8.51809397,36.3358793 C9.30513489,36.5548259 9.92827189,36.9495013 10.3859943,37.5170481 C10.8444721,38.0842377 11.0733333,38.7946534 11.0733333,39.6497239 Z" id="Fill-9" fill="#F7C025"></path>
                <path d="M16.1372606,34.5 C16.1372606,35.2239192 16.2387891,35.9251014 16.442523,36.6009794 C16.6455801,37.2779575 16.9400128,37.8764561 17.324806,38.3957417 C17.7095991,38.9150272 18.1817068,39.3327293 18.741129,39.6473811 C19.2998743,39.9616662 19.9357814,40.1193589 20.6474964,40.1193589 C21.3737638,40.1193589 22.0167778,39.957999 22.5762,39.6352791 C23.1349454,39.3125593 23.6070531,38.8838554 23.992523,38.3488006 C24.3769778,37.8137458 24.6676878,37.2115799 24.8639763,36.5419363 C25.0599263,35.8733929 25.1577322,35.1927474 25.1577322,34.5 C25.1577322,33.7760808 25.0524809,33.0759988 24.8419784,32.3990206 C24.6311375,31.7220425 24.3333205,31.1235439 23.9488658,30.6042583 C23.5637342,30.0849728 23.0916265,29.6716714 22.5325428,29.3643541 C21.9731206,29.0574036 21.3449974,28.9044784 20.6474964,28.9044784 C19.921229,28.9044784 19.2748306,29.0658383 18.7086399,29.3885581 C18.1421107,29.7112779 17.6696646,30.1355812 17.2923169,30.6633014 C16.9142923,31.1906549 16.627305,31.7884201 16.4316933,32.4580637 C16.2354048,33.1266071 16.1372606,33.8072526 16.1372606,34.5 Z M20.625837,43 C19.4927785,43 18.4653098,42.7601605 17.5427539,42.2793813 C16.6198595,41.800069 15.8286139,41.1626974 15.1676631,40.3676331 C14.506374,39.5725688 13.9946702,38.6630857 13.6315365,37.6402839 C13.2684027,36.6174821 13.0866667,35.570843 13.0866667,34.5 C13.0866667,33.3822159 13.2792324,32.312473 13.664364,31.2885711 C14.0491571,30.2657693 14.5794745,29.3610536 15.2549777,28.5733238 C15.9304808,27.7866943 16.7328946,27.1614246 17.6625576,26.6964147 C18.5918821,26.232505 19.6017525,26 20.6911536,26 C21.8096596,26 22.8300214,26.2482742 23.7525773,26.7433558 C24.6747948,27.2395375 25.4629946,27.8890111 26.1164999,28.69141 C26.7703437,29.4945422 27.2786632,30.4076926 27.6417969,31.4304944 C28.0049306,32.4543964 28.1866667,33.4926007 28.1866667,34.5469411 C28.1866667,35.6647252 27.9978236,36.7308008 27.6201375,37.746268 C27.2421129,38.7617353 26.719241,39.6591164 26.0511832,40.437678 C25.3831255,41.216973 24.5837575,41.8396756 23.654433,42.3035853 C22.7247701,42.767495 21.7152381,43 20.625837,43 Z" id="Fill-10" fill="#F7C025"></path>
                <g id="Group-16" transform="translate(30.200000, 0.000000)">
                    <mask id="mask-2" fill="white">
                        <use xlink:href="#path-1"></use>
                    </mask>
                    <g id="Clip-12"></g>
                    <path d="M4.51223529,31.2015167 C4.51223529,32.19195 4.65790588,33.15085 4.95990588,34.076425 C5.25835294,35.002 5.68825882,35.820075 6.25672941,36.5302917 C6.82164706,37.241225 7.51447059,37.8116917 8.33875294,38.2424083 C9.15948235,38.673125 10.0939059,38.8884833 11.1384706,38.8884833 C12.2079059,38.8884833 13.1529882,38.66775 13.9737176,38.2262833 C14.7944471,37.7855333 15.4908235,37.198225 16.0557412,36.46615 C16.6206588,35.7344333 17.0470118,34.910625 17.3348,33.9950833 C17.6225882,33.0802583 17.7682588,32.1485917 17.7682588,31.2015167 C17.7682588,30.2110833 17.6119294,29.2532583 17.3028235,28.3266083 C16.9937176,27.4010333 16.5567059,26.5829583 15.9917882,25.872025 C15.4268706,25.1618083 14.7304941,24.5967167 13.9097647,24.17675 C13.0890353,23.7567833 12.1652706,23.5468 11.1384706,23.5468 C10.0725882,23.5468 9.1204,23.7675333 8.28901176,24.2082833 C7.45762353,24.6501083 6.76124706,25.2320417 6.20698824,25.9530083 C5.65272941,26.6746917 5.22992941,27.4924083 4.94214118,28.40795 C4.65435294,29.3224167 4.51223529,30.2544417 4.51223529,31.2015167 Z M11.1064941,42.8287167 C9.44371765,42.8287167 7.93016471,42.5008417 6.57649412,41.8436583 C5.21927059,41.18755 4.05745882,40.3150083 3.08395294,39.2274667 C2.114,38.1406417 1.36077647,36.8968667 0.827835294,35.497575 C0.293828235,34.097925 0.0270023529,32.666025 0.0270023529,31.2015167 C0.0270023529,29.673225 0.309816471,28.2087167 0.874023529,26.8090667 C1.44249412,25.409775 2.22058824,24.171375 3.21185882,23.0945833 C4.20668235,22.0174333 5.38625882,21.16245 6.75058824,20.527125 C8.11847059,19.8918 9.6036,19.5736 11.2024235,19.5736 C12.8474353,19.5736 14.3467765,19.9133 15.704,20.5909083 C17.0576706,21.2695917 18.2159294,22.1582583 19.1787765,23.2558333 C20.1380706,24.354125 20.8841882,25.603275 21.4206824,27.002925 C21.9536235,28.402575 22.2200941,29.823725 22.2200941,31.2656583 C22.2200941,32.795025 21.9429647,34.2538 21.3887059,35.6427 C20.8308941,37.0312417 20.0634588,38.2588917 19.0828471,39.3249333 C18.0986824,40.3899 16.9262118,41.2405833 15.5583294,41.8759083 C14.194,42.5112333 12.7088706,42.8287167 11.1064941,42.8287167 Z" id="Fill-11" fill="#F7C025" mask="url(#mask-2)"></path>
                    <path d="M43.7082824,20.9073167 C43.5164235,20.7145333 43.1646824,20.4504417 42.6601647,20.118625 C42.1520941,19.7860917 41.5338824,19.4610833 40.8055294,19.142525 C40.0771765,18.8246833 39.2884235,18.5541417 38.4392706,18.3326917 C37.5865647,18.1119583 36.7232,18.0001583 35.8456235,18.0001583 C34.2787765,18.0001583 33.1134118,18.291125 32.3459765,18.8723417 C31.5749882,19.4535583 31.1912706,20.2709167 31.1912706,21.322625 C31.1912706,21.9317917 31.3369412,22.4374 31.6247294,22.838375 C31.9125176,23.2397083 32.3317647,23.5926667 32.8789176,23.8976083 C33.4296235,24.2021917 34.1224471,24.478825 34.9573882,24.7275083 C35.7958824,24.9769083 36.7622824,25.2402833 37.8601412,25.5169167 C39.2884235,25.90535 40.5852471,26.3199417 41.7541647,26.7624833 C42.9195294,27.2057417 43.9072471,27.7590083 44.7173176,28.424075 C45.5273882,29.0880667 46.1527059,29.883925 46.5897176,30.8112917 C47.0302824,31.739375 47.2505647,32.8813833 47.2505647,34.237675 C47.2505647,35.815775 46.9556706,37.1645417 46.3658824,38.2864833 C45.7725412,39.4077083 44.9766824,40.3142917 43.9747529,41.0065917 C42.9728235,41.6985333 41.8216706,42.2041417 40.5177412,42.5223417 C39.2138118,42.8401833 37.8459294,43 36.4212,43 C34.2254824,43 32.0546353,42.6671083 29.9157647,42.0031167 C27.7733412,41.33805 25.8512,40.3970667 24.1493412,39.1790917 L26.6612706,34.237675 C26.9099765,34.4863583 27.3540941,34.8124417 28.0007294,35.213775 C28.6438118,35.61475 29.4076941,36.0164417 30.2852706,36.4174167 C31.1628471,36.8194667 32.1399059,37.15845 33.2093412,37.4350833 C34.2787765,37.7117167 35.3766353,37.8503917 36.5029176,37.8503917 C39.6330588,37.8503917 41.1963529,36.84025 41.1963529,34.8188917 C41.1963529,34.18285 41.0187059,33.6428417 40.6598588,33.1995833 C40.3045647,32.7570417 39.7964941,32.3686083 39.1392,32.0367917 C38.4783529,31.7042583 37.6824941,31.4000333 36.7516235,31.1230417 C35.8172,30.8464083 34.7726353,30.541825 33.6214824,30.2092917 C32.2216235,29.8219333 31.0065176,29.3991 29.9761647,28.9433 C28.9458118,28.486425 28.0895529,27.9464167 27.4038353,27.3229167 C26.7181176,26.7001333 26.2029412,25.9809583 25.8583059,25.1636 C25.5172235,24.3480333 25.3431294,23.3719333 25.3431294,22.236375 C25.3431294,20.7414083 25.6202588,19.4119917 26.1674118,18.2495583 C26.7181176,17.087125 27.4784471,16.11855 28.4519529,15.3424 C29.4290118,14.5684 30.5588471,13.9800167 31.8485647,13.5779667 C33.1382824,13.1769917 34.5274824,12.9759667 36.0090588,12.9759667 C38.0662118,12.9759667 39.9599294,13.3013333 41.6902118,13.9520667 C43.4204941,14.6028 44.9304941,15.37035 46.2202118,16.25615 L43.7082824,20.9073167" id="Fill-13" fill="#F7C025" mask="url(#mask-2)"></path>
                    <polyline id="Fill-14" fill="#F7C025" mask="url(#mask-2)" points="78.9321412 12.77315 67.5058824 12.77315 67.5058824 42.6671083 60.6131765 42.6671083 60.6131765 12.77315 49.1904706 12.77315 49.1904706 6.631675 78.9321412 6.631675 78.9321412 12.77315"></polyline>
                    <path d="M94.8670824,21.133425 L105.1564,21.133425 C105.909624,21.133425 106.616659,20.9531833 107.2704,20.593775 C107.924141,20.23365 108.489059,19.7438083 108.965153,19.1238917 C109.441247,18.5043333 109.817859,17.7744083 110.094988,16.934475 C110.372118,16.0949 110.510682,15.195125 110.510682,14.2355083 C110.510682,13.236475 110.3508,12.3155583 110.034588,11.4759833 C109.718376,10.6364083 109.292024,9.90684167 108.755529,9.28656667 C108.222588,8.66736667 107.604376,8.18684167 106.911553,7.8475 C106.218729,7.50744167 105.515247,7.33723333 104.801106,7.33723333 L94.8670824,7.33723333 L94.8670824,21.133425 Z M86.6633412,42.6671083 L86.6633412,0.0791916667 L105.3376,0.0791916667 C107.277506,0.0791916667 109.071741,0.489841667 110.720306,1.308275 C112.365318,2.1285 113.782941,3.208875 114.969624,4.54796667 C116.159859,5.88849167 117.090729,7.40746667 117.765788,9.106325 C118.440847,10.8066167 118.778376,12.516225 118.778376,14.2355083 C118.778376,16.994675 118.092659,19.5040833 116.724776,21.7630167 C115.356894,24.0226667 113.502259,25.6523667 111.164424,26.6514 L120.8,42.6671083 L111.580118,42.6671083 L102.957129,28.391825 L94.8670824,28.391825 L94.8670824,42.6671083 L86.6633412,42.6671083 Z" id="Fill-15" fill="#F7C025" mask="url(#mask-2)"></path>
                </g>
            </g>
        </g>
    </g>
</svg>